<?xml version="1.0" encoding="utf-8"?><svg width="221" height="34" viewBox="0 0 221 34" fill="none" xmlns="http://www.w3.org/2000/svg">
<path d="M66.082 29C65.896 29 65.7823 28.907 65.741 28.721L64.811 25.125C64.7903 25.063 64.7387 25.032 64.656 25.032H57.805C57.7017 25.032 57.65 25.063 57.65 25.125L56.751 28.721C56.7303 28.907 56.6167 29 56.41 29H53.992C53.8887 29 53.806 28.969 53.744 28.907C53.7027 28.845 53.6923 28.7623 53.713 28.659L59.448 7.579C59.4893 7.393 59.603 7.3 59.789 7.3H62.703C62.889 7.3 63.0027 7.393 63.044 7.579L68.81 28.659L68.841 28.752C68.841 28.9173 68.7377 29 68.531 29H66.082ZM58.301 22.552C58.2803 22.5727 58.2803 22.6037 58.301 22.645C58.3423 22.6657 58.3837 22.676 58.425 22.676H64.036C64.0773 22.676 64.1083 22.6657 64.129 22.645C64.1703 22.6037 64.1807 22.5727 64.16 22.552L61.277 11.33C61.2563 11.2887 61.2357 11.268 61.215 11.268C61.1943 11.268 61.1737 11.2887 61.153 11.33L58.301 22.552ZM74.1103 29C73.9449 29 73.8313 28.9173 73.7693 28.752L69.3053 13.562L69.2743 13.469C69.2743 13.3037 69.3776 13.221 69.5843 13.221H72.1883C72.3949 13.221 72.5086 13.314 72.5293 13.5L75.3813 24.629C75.4019 24.6703 75.4226 24.691 75.4433 24.691C75.4639 24.691 75.4846 24.6703 75.5053 24.629L78.3263 13.5C78.3676 13.314 78.4813 13.221 78.6673 13.221L81.2713 13.252C81.3746 13.252 81.4469 13.283 81.4883 13.345C81.5503 13.407 81.5709 13.4897 81.5503 13.593L77.1173 28.752C77.0553 28.9173 76.9416 29 76.7763 29H74.1103ZM89.2574 12.973C90.9727 12.973 92.3471 13.4587 93.3804 14.43C94.4137 15.3807 94.9304 16.631 94.9304 18.181V28.69C94.9304 28.8967 94.8271 29 94.6204 29H92.2644C92.0577 29 91.9544 28.8967 91.9544 28.69V27.791C91.9544 27.7497 91.9337 27.729 91.8924 27.729C91.8717 27.7083 91.8407 27.7187 91.7994 27.76C90.8694 28.752 89.5777 29.248 87.9244 29.248C86.5811 29.248 85.4341 28.8863 84.4834 28.163C83.5327 27.419 83.0574 26.2307 83.0574 24.598C83.0574 22.9033 83.6051 21.622 84.7004 20.754C85.8164 19.8653 87.3251 19.421 89.2264 19.421H91.8304C91.9131 19.421 91.9544 19.3797 91.9544 19.297V18.429C91.9544 17.5403 91.7167 16.8377 91.2414 16.321C90.7867 15.8043 90.1254 15.546 89.2574 15.546C88.5754 15.546 88.0071 15.7217 87.5524 16.073C87.1184 16.4037 86.8497 16.8583 86.7464 17.437C86.7257 17.623 86.6121 17.716 86.4054 17.716L83.8634 17.561C83.7807 17.561 83.7084 17.5403 83.6464 17.499C83.5844 17.437 83.5637 17.3647 83.5844 17.282C83.7084 16.0007 84.2871 14.9673 85.3204 14.182C86.3744 13.376 87.6867 12.973 89.2574 12.973ZM88.5754 26.706C89.4847 26.706 90.2701 26.4477 90.9314 25.931C91.6134 25.4143 91.9544 24.722 91.9544 23.854V21.87C91.9544 21.7873 91.9131 21.746 91.8304 21.746H89.4434C88.4307 21.746 87.6144 21.9733 86.9944 22.428C86.3951 22.8827 86.0954 23.544 86.0954 24.412C86.0954 25.1767 86.3227 25.7553 86.7774 26.148C87.2321 26.52 87.8314 26.706 88.5754 26.706ZM106.887 7.61C106.887 7.40333 106.991 7.3 107.197 7.3H109.553C109.76 7.3 109.863 7.40333 109.863 7.61V28.69C109.863 28.8967 109.76 29 109.553 29H107.197C106.991 29 106.887 28.8967 106.887 28.69V27.636C106.887 27.5947 106.867 27.5637 106.825 27.543C106.784 27.5223 106.753 27.5327 106.732 27.574C105.988 28.69 104.821 29.248 103.229 29.248C101.948 29.248 100.915 28.876 100.129 28.132C99.3439 27.388 98.7652 26.241 98.3932 24.691C98.1452 23.6163 98.0212 22.4383 98.0212 21.157C98.0212 19.8343 98.1245 18.6563 98.3312 17.623C98.9512 14.523 100.636 12.973 103.384 12.973C104.19 12.973 104.862 13.1073 105.399 13.376C105.937 13.6447 106.381 14.0477 106.732 14.585C106.774 14.6263 106.805 14.647 106.825 14.647C106.867 14.647 106.887 14.616 106.887 14.554V7.61ZM106.453 24.598C106.722 23.7713 106.856 22.6037 106.856 21.095C106.856 19.545 106.712 18.367 106.422 17.561C106.236 16.8997 105.947 16.4037 105.554 16.073C105.182 15.7217 104.686 15.546 104.066 15.546C102.847 15.546 102 16.197 101.524 17.499C101.194 18.429 101.028 19.6277 101.028 21.095C101.028 22.583 101.163 23.73 101.431 24.536C101.865 25.962 102.733 26.675 104.035 26.675C105.234 26.675 106.04 25.9827 106.453 24.598ZM119.107 12.973C120.822 12.973 122.197 13.4587 123.23 14.43C124.263 15.3807 124.78 16.631 124.78 18.181V28.69C124.78 28.8967 124.677 29 124.47 29H122.114C121.907 29 121.804 28.8967 121.804 28.69V27.791C121.804 27.7497 121.783 27.729 121.742 27.729C121.721 27.7083 121.69 27.7187 121.649 27.76C120.719 28.752 119.427 29.248 117.774 29.248C116.431 29.248 115.284 28.8863 114.333 28.163C113.382 27.419 112.907 26.2307 112.907 24.598C112.907 22.9033 113.455 21.622 114.55 20.754C115.666 19.8653 117.175 19.421 119.076 19.421H121.68C121.763 19.421 121.804 19.3797 121.804 19.297V18.429C121.804 17.5403 121.566 16.8377 121.091 16.321C120.636 15.8043 119.975 15.546 119.107 15.546C118.425 15.546 117.857 15.7217 117.402 16.073C116.968 16.4037 116.699 16.8583 116.596 17.437C116.575 17.623 116.462 17.716 116.255 17.716L113.713 17.561C113.63 17.561 113.558 17.5403 113.496 17.499C113.434 17.437 113.413 17.3647 113.434 17.282C113.558 16.0007 114.137 14.9673 115.17 14.182C116.224 13.376 117.536 12.973 119.107 12.973ZM118.425 26.706C119.334 26.706 120.12 26.4477 120.781 25.931C121.463 25.4143 121.804 24.722 121.804 23.854V21.87C121.804 21.7873 121.763 21.746 121.68 21.746H119.293C118.28 21.746 117.464 21.9733 116.844 22.428C116.245 22.8827 115.945 23.544 115.945 24.412C115.945 25.1767 116.172 25.7553 116.627 26.148C117.082 26.52 117.681 26.706 118.425 26.706ZM147.19 9.563C147.19 9.76967 147.087 9.873 146.88 9.873H137.921C137.838 9.873 137.797 9.91433 137.797 9.997V16.693C137.797 16.7757 137.838 16.817 137.921 16.817H143.811C144.018 16.817 144.121 16.9203 144.121 17.127V19.08C144.121 19.2867 144.018 19.39 143.811 19.39H137.921C137.838 19.39 137.797 19.4313 137.797 19.514V28.69C137.797 28.8967 137.694 29 137.487 29H135.131C134.924 29 134.821 28.8967 134.821 28.69V7.61C134.821 7.40333 134.924 7.3 135.131 7.3H146.88C147.087 7.3 147.19 7.40333 147.19 7.61V9.563ZM151.322 10.741C150.744 10.741 150.268 10.555 149.896 10.183C149.524 9.811 149.338 9.33567 149.338 8.757C149.338 8.15767 149.524 7.68233 149.896 7.331C150.268 6.959 150.744 6.773 151.322 6.773C151.901 6.773 152.376 6.959 152.748 7.331C153.12 7.703 153.306 8.17833 153.306 8.757C153.306 9.33567 153.11 9.811 152.717 10.183C152.345 10.555 151.88 10.741 151.322 10.741ZM150.113 29C149.907 29 149.803 28.8967 149.803 28.69V13.531C149.803 13.3243 149.907 13.221 150.113 13.221H152.469C152.676 13.221 152.779 13.3243 152.779 13.531V28.69C152.779 28.8967 152.676 29 152.469 29H150.113ZM163.797 15.205C163.797 15.4117 163.693 15.515 163.487 15.515H160.728C160.645 15.515 160.604 15.5563 160.604 15.639V24.133C160.604 24.9803 160.769 25.5797 161.1 25.931C161.451 26.2617 161.988 26.427 162.712 26.427H163.301C163.507 26.427 163.611 26.5303 163.611 26.737V28.69C163.611 28.8967 163.507 29 163.301 29L162.092 29.031C160.645 29.031 159.55 28.7623 158.806 28.225C158.082 27.667 157.721 26.644 157.721 25.156V15.639C157.721 15.5563 157.679 15.515 157.597 15.515H156.078C155.871 15.515 155.768 15.4117 155.768 15.205V13.531C155.768 13.3243 155.871 13.221 156.078 13.221H157.597C157.679 13.221 157.721 13.1797 157.721 13.097V9.532C157.721 9.32533 157.824 9.222 158.031 9.222H160.294C160.5 9.222 160.604 9.32533 160.604 9.532V13.097C160.604 13.1797 160.645 13.221 160.728 13.221H163.487C163.693 13.221 163.797 13.3243 163.797 13.531V15.205ZM173.477 13.004C174.986 13.004 176.153 13.469 176.98 14.399C177.827 15.329 178.251 16.6103 178.251 18.243V28.69C178.251 28.8967 178.148 29 177.941 29H175.585C175.378 29 175.275 28.8967 175.275 28.69V18.677C175.275 17.7263 175.027 16.972 174.531 16.414C174.056 15.856 173.405 15.577 172.578 15.577C171.731 15.577 171.049 15.8663 170.532 16.445C170.036 17.003 169.788 17.7573 169.788 18.708V28.69C169.788 28.8967 169.685 29 169.478 29H167.122C166.915 29 166.812 28.8967 166.812 28.69V13.531C166.812 13.3243 166.915 13.221 167.122 13.221H169.478C169.685 13.221 169.788 13.3243 169.788 13.531V14.492C169.788 14.554 169.798 14.5953 169.819 14.616C169.86 14.616 169.902 14.585 169.943 14.523C170.749 13.5103 171.927 13.004 173.477 13.004ZM187.563 26.675C188.265 26.675 188.854 26.5097 189.33 26.179C189.826 25.8277 190.198 25.3523 190.446 24.753C190.508 24.567 190.632 24.4947 190.818 24.536L192.926 25.001C193.132 25.063 193.205 25.187 193.143 25.373C192.75 26.5923 192.068 27.543 191.097 28.225C190.125 28.907 188.937 29.248 187.532 29.248C185.92 29.248 184.618 28.845 183.626 28.039C182.634 27.233 182.003 26.1273 181.735 24.722C181.631 24.1433 181.559 23.5337 181.518 22.893C181.497 22.2317 181.487 21.3637 181.487 20.289C181.487 19.235 181.538 18.398 181.642 17.778C181.828 16.3313 182.437 15.174 183.471 14.306C184.504 13.4173 185.806 12.973 187.377 12.973C189.092 12.973 190.477 13.4587 191.531 14.43C192.585 15.4013 193.174 16.6827 193.298 18.274C193.36 18.9767 193.391 20.2683 193.391 22.149C193.391 22.3557 193.287 22.459 193.081 22.459H184.587C184.504 22.459 184.463 22.5003 184.463 22.583C184.463 23.1617 184.494 23.668 184.556 24.102C184.659 24.8667 184.979 25.4867 185.517 25.962C186.054 26.4373 186.736 26.675 187.563 26.675ZM187.408 15.546C186.622 15.546 185.971 15.7837 185.455 16.259C184.959 16.7343 184.659 17.3543 184.556 18.119C184.494 18.677 184.463 19.2867 184.463 19.948C184.463 20.0307 184.504 20.072 184.587 20.072H190.291C190.373 20.072 190.415 20.0307 190.415 19.948C190.373 19.1213 190.332 18.522 190.291 18.15C190.187 17.3853 189.877 16.7653 189.361 16.29C188.844 15.794 188.193 15.546 187.408 15.546ZM201.502 29.186C199.807 29.186 198.443 28.7933 197.41 28.008C196.397 27.2227 195.891 26.21 195.891 24.97V24.66C195.891 24.4533 195.994 24.35 196.201 24.35H198.402C198.609 24.35 198.712 24.4533 198.712 24.66V24.846C198.712 25.404 198.981 25.8897 199.518 26.303C200.055 26.7163 200.717 26.923 201.502 26.923C202.287 26.923 202.918 26.7267 203.393 26.334C203.889 25.9413 204.137 25.4557 204.137 24.877C204.137 24.4223 203.992 24.0503 203.703 23.761C203.434 23.4717 203.093 23.2443 202.68 23.079C202.287 22.893 201.698 22.6657 200.913 22.397C199.942 22.087 199.115 21.7667 198.433 21.436C197.772 21.0847 197.203 20.599 196.728 19.979C196.253 19.3383 196.015 18.5323 196.015 17.561C196.015 16.1763 196.501 15.081 197.472 14.275C198.464 13.469 199.776 13.066 201.409 13.066C203.062 13.066 204.385 13.4793 205.377 14.306C206.39 15.1327 206.896 16.2177 206.896 17.561V17.623C206.896 17.8297 206.793 17.933 206.586 17.933H204.416C204.209 17.933 204.106 17.8297 204.106 17.623V17.499C204.106 16.8997 203.858 16.4037 203.362 16.011C202.866 15.6183 202.215 15.422 201.409 15.422C200.644 15.422 200.024 15.608 199.549 15.98C199.094 16.352 198.867 16.8273 198.867 17.406C198.867 17.84 199.001 18.2017 199.27 18.491C199.539 18.7597 199.869 18.987 200.262 19.173C200.675 19.359 201.275 19.5863 202.06 19.855C203.093 20.2063 203.941 20.5473 204.602 20.878C205.284 21.2087 205.873 21.684 206.369 22.304C206.865 22.924 207.113 23.7197 207.113 24.691C207.113 26.0757 206.607 27.171 205.594 27.977C204.581 28.783 203.217 29.186 201.502 29.186ZM214.55 29.186C212.855 29.186 211.491 28.7933 210.458 28.008C209.445 27.2227 208.939 26.21 208.939 24.97V24.66C208.939 24.4533 209.042 24.35 209.249 24.35H211.45C211.656 24.35 211.76 24.4533 211.76 24.66V24.846C211.76 25.404 212.028 25.8897 212.566 26.303C213.103 26.7163 213.764 26.923 214.55 26.923C215.335 26.923 215.965 26.7267 216.441 26.334C216.937 25.9413 217.185 25.4557 217.185 24.877C217.185 24.4223 217.04 24.0503 216.751 23.761C216.482 23.4717 216.141 23.2443 215.728 23.079C215.335 22.893 214.746 22.6657 213.961 22.397C212.989 22.087 212.163 21.7667 211.481 21.436C210.819 21.0847 210.251 20.599 209.776 19.979C209.3 19.3383 209.063 18.5323 209.063 17.561C209.063 16.1763 209.548 15.081 210.52 14.275C211.512 13.469 212.824 13.066 214.457 13.066C216.11 13.066 217.433 13.4793 218.425 14.306C219.437 15.1327 219.944 16.2177 219.944 17.561V17.623C219.944 17.8297 219.84 17.933 219.634 17.933H217.464C217.257 17.933 217.154 17.8297 217.154 17.623V17.499C217.154 16.8997 216.906 16.4037 216.41 16.011C215.914 15.6183 215.263 15.422 214.457 15.422C213.692 15.422 213.072 15.608 212.597 15.98C212.142 16.352 211.915 16.8273 211.915 17.406C211.915 17.84 212.049 18.2017 212.318 18.491C212.586 18.7597 212.917 18.987 213.31 19.173C213.723 19.359 214.322 19.5863 215.108 19.855C216.141 20.2063 216.988 20.5473 217.65 20.878C218.332 21.2087 218.921 21.684 219.417 22.304C219.913 22.924 220.161 23.7197 220.161 24.691C220.161 26.0757 219.654 27.171 218.642 27.977C217.629 28.783 216.265 29.186 214.55 29.186Z" fill="white"/>
<rect x="9.86328" y="4.38794" width="12.7759" height="36.5025" rx="6.38793" transform="rotate(-30 9.86328 4.38794)" fill="url(#paint0_linear)"/>
<rect x="16.2507" y="-2" width="12.7759" height="36.5025" rx="6.38793" transform="rotate(30 16.2507 -2)" fill="url(#paint1_linear)"/>
<defs>
<linearGradient id="paint0_linear" x1="16.2512" y1="4.38794" x2="16.2512" y2="40.8904" gradientUnits="userSpaceOnUse">
<stop stop-color="#263CFF" stop-opacity="0"/>
<stop offset="1" stop-color="#F03D46"/>
</linearGradient>
<linearGradient id="paint1_linear" x1="22.6387" y1="-2" x2="22.6387" y2="34.5025" gradientUnits="userSpaceOnUse">
<stop stop-color="#4154FF"/>
<stop offset="1" stop-color="#E6283E"/>
</linearGradient>
</defs>
</svg>
